HIERARCHY
ROOT Hips
{
	OFFSET 0.00000 0.00000 0.00000
	CHANNELS 6 Xposition Yposition Zposition Zrotation Yrotation Xrotation 
	JOINT LHipJoint
	{
		OFFSET 0 0 0
		CHANNELS 3 Zrotation Yrotation Xrotation
		JOINT LeftHip
		{
			OFFSET 1.59801 -1.77853 0.57028
			CHANNELS 3 Zrotation Yrotation Xrotation
			JOINT LeftKnee
			{
				OFFSET 2.39439 -6.57854 0.00000
				CHANNELS 3 Zrotation Yrotation Xrotation
				JOINT LeftAnkle
				{
					OFFSET 2.69334 -7.39989 0.00000
					CHANNELS 3 Zrotation Yrotation Xrotation
					JOINT LeftToe
					{
						OFFSET 0.09553 -0.26245 1.73747
						CHANNELS 3 Zrotation Yrotation Xrotation
						End Site
						{
							OFFSET 0.00000 -0.00000 0.89391
						}
					}
				}
			}
		}
	}
	JOINT RHipJoint
	{
		OFFSET 0 0 0
		CHANNELS 3 Zrotation Yrotation Xrotation
		JOINT RightHip
		{
			OFFSET -1.54704 -1.77852 0.57028
			CHANNELS 3 Zrotation Yrotation Xrotation
			JOINT RightKnee
			{
				OFFSET -2.40286 -6.60180 0.00000
				CHANNELS 3 Zrotation Yrotation Xrotation
				JOINT RightAnkle
				{
					OFFSET -2.63873 -7.24984 0.00000
					CHANNELS 3 Zrotation Yrotation Xrotation
					JOINT RightToe
					{
						OFFSET -0.15631 -0.42945 1.84436
						CHANNELS 3 Zrotation Yrotation Xrotation
						End Site
						{
							OFFSET -0.00000 -0.00000 0.95734
						}
					}
				}
			}
		}
	}
	JOINT lowerback
	{
		OFFSET 0 0 0
		CHANNELS 3 Zrotation Yrotation Xrotation
		JOINT Chest
		{
			OFFSET -0.00436 1.89866 -0.04018
			CHANNELS 3 Zrotation Yrotation Xrotation
			JOINT Chest2
			{
				OFFSET 0.02031 1.88273 0.09634
				CHANNELS 3 Zrotation Yrotation Xrotation
				JOINT lowerneck
				{
					OFFSET 0 0 0
					CHANNELS 3 Zrotation Yrotation Xrotation
					JOINT Neck
					{
						OFFSET -0.13105 1.89371 0.23083
						CHANNELS 3 Zrotation Yrotation Xrotation
						JOINT Head
						{
							OFFSET 0.17062 1.83990 -0.54062
							CHANNELS 3 Zrotation Yrotation Xrotation
							End Site
							{
								OFFSET 0.04576 1.94782 -0.21839
							}
						}
					}
				}
				JOINT LeftCollar
				{
					OFFSET 0 0 0
					CHANNELS 3 Zrotation Yrotation Xrotation
					JOINT LeftShoulder
					{
						OFFSET 3.12424 1.09204 0.22226
CHANNELS 3 Zrotation Xrotation Yrotation
						JOINT LeftElbow
						{
OFFSET 0 -5.292770 0.000000
CHANNELS 3 Zrotation Xrotation Yrotation
							JOINT LeftWrist
							{
OFFSET 0 -2.852260 0.000000
CHANNELS 3 Zrotation Xrotation Yrotation
								JOINT lhand
								{
									OFFSET 0 0 0
CHANNELS 3 Zrotation Xrotation Yrotation
									JOINT LFingers
									{
OFFSET 0 -0.602100 0.000000
CHANNELS 3 Zrotation Xrotation Yrotation
										End Site
										{
OFFSET 0 -0.485430 0.000000
										}
									}
								}
								JOINT LThumb
								{
OFFSET 0 0.000000 0.000000
CHANNELS 3 Zrotation Xrotation Yrotation
									End Site
									{
OFFSET 0 -0.492840 0.492840
									}
								}
							}
						}
					}
				}
				JOINT RightCollar
				{
					OFFSET 0 0 0
					CHANNELS 3 Zrotation Yrotation Xrotation
					JOINT RightShoulder
					{
						OFFSET -2.91709 1.01504 0.30199
CHANNELS 3 Zrotation Xrotation Yrotation
						JOINT RightElbow
						{
OFFSET 0 -5.133040 0.000000
CHANNELS 3 Zrotation Xrotation Yrotation
							JOINT RightWrist
							{
OFFSET 0 -2.743050 0.000000
CHANNELS 3 Zrotation Xrotation Yrotation
								JOINT rhand
								{
									OFFSET 0 0 0
CHANNELS 3 Zrotation Xrotation Yrotation
									JOINT RFingers
									{
OFFSET 0 -0.767980 0.000000
CHANNELS 3 Zrotation Xrotation Yrotation
										End Site
										{
OFFSET 0 -0.619160 0.000000
										}
									}
								}
								JOINT RThumb
								{
OFFSET 0 0.000000 0.000000
CHANNELS 3 Zrotation Xrotation Yrotation
									End Site
									{
OFFSET 0 -0.628620 0.628620
									}
								}
							}
						}
					}
				}
			}
		}
	}
}
MOTION
Frames: 5
Frame Time: 0.008333333333333333
0.038700 17.407500 0.024000 -1.925600 7.285300 1.245000 0.000000 0.000000 0.000000 -17.793100 -18.931600 3.929500 0.783100 5.649500 15.770700 0.732300 0.936900 -16.532200 0.609900 -4.998400 -13.903900 0.000000 0.000000 0.000000 22.239800 2.114700 10.376200 0.000000 0.000000 -0.000000 0.124600 -10.824000 -13.353200 -0.142000 2.428300 -6.690900 0.518400 2.265200 -6.680800 -0.658800 2.995900 -5.385000 -0.816600 1.480300 -1.751000 -19.405700 -14.128400 -0.647100 11.750000 -23.616900 37.727500 4.383700 -11.639900 18.344900 0.000000 0.000000 0.000000 124.311900 -51.461900 60.247200 154.107400 -37.102500 111.177200 18.651000 -21.716700 -40.818100 0.000000 0.000000 0.000000 -7.125000 0.000000 0.000000 -26.699400 70.699800 16.755500 0.000000 0.000000 0.000000 -10.842600 -57.329600 38.974700 -148.092300 -42.473400 -107.321600 -24.251800 -10.255500 -19.786500 0.000000 0.000000 0.000000 7.125000 0.000000 -0.000000 2.642400 8.465400 2.227000
0.051707 17.414547 0.002827 -2.004323 6.674959 1.509462 0.000000 0.000000 0.000000 -17.703527 -18.975105 3.725269 0.775853 5.623746 15.696649 0.742373 1.284292 -16.789743 0.489207 -4.484820 -12.444857 0.000000 0.000000 0.000000 22.281891 2.859059 10.157684 0.000000 0.000000 0.000000 0.149637 -10.956720 -13.109491 -0.163723 2.606887 -7.186024 0.768732 2.318063 -6.476638 -0.540532 3.056617 -5.424925 -0.841652 1.504350 -1.898152 -19.083752 -14.053810 0.270652 12.089762 -23.067189 33.995539 4.609027 -11.424171 15.901779 0.000000 0.000000 0.000000 122.206450 -51.412369 59.821558 156.351742 -34.790049 112.495093 18.965525 -23.606873 -40.039742 0.000000 0.000000 0.000000 -7.125000 0.000000 0.000000 -25.045138 70.138210 15.367171 0.000000 0.000000 0.000000 -10.130797 -56.848289 40.483332 -148.466632 -42.171941 -107.573649 -24.843703 -10.781706 -19.844078 0.000000 0.000000 0.000000 7.125000 0.000000 0.000000 2.267869 8.306180 1.917995
0.061533 17.417500 -0.009780 -2.013153 6.385365 1.705593 0.000000 0.000000 0.000000 -17.675314 -18.981584 3.422524 0.789685 5.672596 15.837288 0.745353 1.384587 -16.866392 0.457124 -4.336910 -12.026526 0.000000 0.000000 0.000000 22.241361 3.235859 9.997706 0.000000 0.000000 0.000000 0.155572 -11.012820 -13.093491 -0.185780 2.775719 -7.655036 0.989490 2.398510 -6.207359 -0.502404 3.156278 -5.293959 -0.929103 1.548522 -1.899873 -19.147969 -14.389321 0.153355 12.164341 -23.248821 32.157111 4.556095 -11.506768 15.068899 0.000000 0.000000 0.000000 120.289678 -51.910241 58.278180 157.747782 -33.260873 113.276364 18.908448 -20.584956 -39.239487 0.000000 0.000000 0.000000 -7.125000 0.000000 0.000000 -23.889554 69.423228 14.254354 0.000000 0.000000 0.000000 -9.901555 -56.650529 41.559991 -148.937856 -41.786577 -107.888837 -25.795484 -10.688187 -20.353485 0.000000 0.000000 0.000000 7.125000 0.000000 0.000000 1.712779 7.594883 1.472072
0.068050 17.426030 -0.038390 -2.126754 6.185223 2.012090 0.000000 0.000000 0.000000 -17.378246 -18.829274 2.808017 0.795041 5.691533 15.891917 0.723990 1.319730 -16.603702 0.471535 -4.403961 -12.216049 0.000000 0.000000 0.000000 22.314578 3.611414 9.603378 0.000000 0.000000 0.000000 0.170180 -11.027830 -12.838420 -0.175963 2.701503 -7.448905 1.195141 2.529549 -5.878998 -0.418199 3.327467 -5.286017 -0.964632 1.628558 -2.063587 -19.065745 -14.891155 -0.343094 11.414725 -23.612070 31.843050 4.101179 -11.689064 14.955207 0.000000 0.000000 0.000000 118.781198 -52.692174 57.809838 158.545278 -32.355216 113.708498 18.668201 -20.059559 -38.228869 0.000000 0.000000 0.000000 -7.125000 0.000000 0.000000 -22.749849 68.454091 13.058485 0.000000 0.000000 0.000000 -9.983453 -56.353051 41.988846 -149.517719 -41.303159 -108.273413 -26.274590 -11.205195 -20.978316 0.000000 0.000000 0.000000 7.125000 0.000000 0.000000 1.479202 6.834278 1.293131
0.080240 17.431586 -0.059752 -2.035328 5.982844 2.233464 0.000000 0.000000 0.000000 -17.467677 -18.910900 2.596979 0.783628 5.651319 15.775844 0.710075 1.652836 -16.598847 0.515415 -4.601342 -12.775031 0.000000 0.000000 0.000000 22.138225 3.928940 9.344040 0.000000 0.000000 0.000000 0.181000 -11.063313 -12.687786 -0.181792 2.746154 -7.572829 1.149492 2.618331 -5.640596 -0.379070 3.451254 -5.279020 -0.905547 1.691607 -2.190608 -18.939393 -15.252443 -0.691351 10.933510 -23.870854 31.423845 3.794818 -11.811148 14.776203 0.000000 0.000000 0.000000 117.472850 -53.345411 57.320736 159.655069 -31.055539 114.291737 18.099695 -19.662921 -37.441208 0.000000 0.000000 0.000000 -7.125000 0.000000 0.000000 -22.391527 67.575883 12.403452 0.000000 0.000000 0.000000 -9.702684 -55.739716 43.139584 -150.054461 -40.846610 -108.626059 -26.152531 -11.682234 -20.958104 0.000000 0.000000 0.000000 7.125000 0.000000 0.000000 1.554103 6.878456 1.357323
